SplineFontDB: 3.2
FontName: Font#8
FullName: Font#8
FamilyName: Font#8
Weight: Book
Version: 001.000
ItalicAngle: 0
UnderlinePosition: -14
UnderlineWidth: 4
Ascent: 50
Descent: 0
InvalidEm: 0
sfntRevision: 0x00010000
LayerCount: 2
Layer: 0 1 "Warstwa t+AUIA-a" 1
Layer: 1 1 "Plan pierwszy" 0
XUID: [1021 102 369710040 5029009]
StyleMap: 0x0000
FSType: 0
OS2Version: 4
OS2_WeightWidthSlopeOnly: 0
OS2_UseTypoMetrics: 1
CreationTime: 1520682557
ModificationTime: 1520686947
PfmFamily: 17
TTFWeight: 400
TTFWidth: 5
LineGap: 4
VLineGap: 0
Panose: 2 0 5 9 0 0 0 0 0 0
OS2TypoAscent: 50
OS2TypoAOffset: 0
OS2TypoDescent: 0
OS2TypoDOffset: 0
OS2TypoLinegap: 4
OS2WinAscent: 50
OS2WinAOffset: 0
OS2WinDescent: 0
OS2WinDOffset: 0
HheadAscent: 50
HheadAOffset: 0
HheadDescent: 0
HheadDOffset: 0
OS2SubXSize: 32
OS2SubYSize: 35
OS2SubXOff: 0
OS2SubYOff: 7
OS2SupXSize: 32
OS2SupYSize: 35
OS2SupXOff: 0
OS2SupYOff: 24
OS2StrikeYSize: 2
OS2StrikeYPos: 12
OS2CapHeight: 50
OS2Vendor: 'PfEd'
OS2CodePages: 00000001.00000000
OS2UnicodeRanges: 00000001.00000000.00000000.00000000
Lookup: 4 0 1 "'liga' Standard Ligatures in Latin lookup 0" { "'liga' Standard Ligatures in Latin lookup 0 subtable"  } ['liga' ('DFLT' <'dflt' > 'latn' <'dflt' > ) ]
Lookup: 259 0 0 "'curs' Cursive Attachment in Latin lookup 0" { "'curs' Cursive Attachment in Latin lookup 0 subtable"  } ['curs' ('latn' <'dflt' > ) ]
MarkAttachClasses: 1
DEI: 91125
ShortTable: cvt  2
  1
  32
EndShort
ShortTable: maxp 16
  1
  0
  31
  16
  2
  0
  0
  2
  0
  1
  1
  0
  64
  46
  0
  0
EndShort
LangName: 1033 "" "" "Regular" "FontForge : Font#8 : 10-3-2018"
GaspTable: 1 65535 2 0
Encoding: UnicodeBmp
UnicodeInterp: none
NameList: AGL For New Fonts
DisplaySize: -48
AntiAlias: 1
FitToEm: 0
WinInfo: 60 20 14
AnchorClass2: "Cursive-0" "'curs' Cursive Attachment in Latin lookup 0 subtable"
BeginChars: 65541 31

StartChar: .notdef
Encoding: 65536 -1 0
Width: 50
GlyphClass: 1
Flags: W
LayerCount: 2
Fore
SplineSet
1 0 m 1,0,-1
 1 33 l 1,1,-1
 11 33 l 1,2,-1
 11 0 l 1,3,-1
 1 0 l 1,0,-1
2 1 m 1,4,-1
 10 1 l 1,5,-1
 10 32 l 1,6,-1
 2 32 l 1,7,-1
 2 1 l 1,4,-1
EndSplineSet
EndChar

StartChar: A
Encoding: 65 65 3
Width: 50
GlyphClass: 2
Flags: W
AnchorPoint: "Cursive-0" 45 49 exit 0
AnchorPoint: "Cursive-0" 6 29 entry 0
LayerCount: 2
Fore
SplineSet
5 29 m 1,0,-1
 15 40 l 1,1,-1
 25 50 l 1,2,-1
 35 50 l 1,3,-1
 45 50 l 1,4,-1
 45 49 l 1,5,-1
 45 48 l 1,6,-1
 36 48 l 1,7,-1
 26 48 l 1,8,-1
 16 38 l 1,9,-1
 7 28 l 1,10,-1
 6 28 l 1,11,-1
 5 28 l 1,12,-1
 5 29 l 1,0,-1
EndSplineSet
EndChar

StartChar: B
Encoding: 66 66 4
Width: 50
GlyphClass: 2
Flags: W
AnchorPoint: "Cursive-0" 35 30 exit 0
AnchorPoint: "Cursive-0" 15 50 entry 0
LayerCount: 2
Fore
SplineSet
15 30 m 1,0,-1
 14 30 l 1,1,-1
 14 40 l 1,2,-1
 14 50 l 1,3,-1
 16 50 l 1,4,-1
 16 40 l 1,5,-1
 16 31 l 1,6,-1
 26 31 l 1,7,-1
 36 31 l 1,8,-1
 36 30 l 1,9,-1
 36 29 l 1,10,-1
 26 29 l 1,11,-1
 16 29 l 1,12,-1
 15 30 l 1,0,-1
EndSplineSet
EndChar

StartChar: C
Encoding: 67 67 5
Width: 50
GlyphClass: 2
Flags: W
AnchorPoint: "Cursive-0" 44 48 exit 0
AnchorPoint: "Cursive-0" 4 49 entry 0
LayerCount: 2
Fore
SplineSet
14 39 m 1,0,-1
 4 49 l 1,1,-1
 5 49 l 1,2,-1
 6 50 l 1,3,-1
 15 40 l 1,4,-1
 25 31 l 1,5,-1
 35 40 l 1,6,-1
 44 49 l 1,7,-1
 45 49 l 1,8,-1
 46 48 l 1,9,-1
 36 38 l 1,10,-1
 26 29 l 1,11,-1
 25 29 l 1,12,-1
 24 29 l 1,13,-1
 14 39 l 1,0,-1
EndSplineSet
EndChar

StartChar: D
Encoding: 68 68 6
Width: 50
GlyphClass: 2
Flags: W
AnchorPoint: "Cursive-0" 35 49 exit 0
AnchorPoint: "Cursive-0" 15 9 entry 0
LayerCount: 2
Fore
SplineSet
14 20 m 1,0,-1
 14 29 l 1,1,-1
 24 40 l 1,2,-1
 35 50 l 1,3,-1
 35 49 l 1,4,-1
 36 48 l 1,5,-1
 26 38 l 1,6,-1
 16 28 l 1,7,-1
 16 19 l 1,8,-1
 16 10 l 1,9,-1
 15 10 l 1,10,-1
 14 10 l 1,11,-1
 14 20 l 1,0,-1
EndSplineSet
EndChar

StartChar: E
Encoding: 69 69 7
Width: 50
GlyphClass: 2
Flags: W
AnchorPoint: "Cursive-0" 44 49 exit 0
AnchorPoint: "Cursive-0" 5 9 entry 0
LayerCount: 2
Fore
SplineSet
4 10 m 1,0,-1
 24 30 l 1,1,-1
 44 50 l 1,2,-1
 45 49 l 1,3,-1
 46 49 l 1,4,-1
 26 29 l 1,5,-1
 6 9 l 1,6,-1
 5 9 l 1,7,-1
 4 9 l 1,8,-1
 4 10 l 1,0,-1
EndSplineSet
EndChar

StartChar: F
Encoding: 70 70 8
Width: 50
GlyphClass: 2
Flags: W
AnchorPoint: "Cursive-0" 25 50 exit 0
AnchorPoint: "Cursive-0" 25 10 entry 0
LayerCount: 2
Fore
SplineSet
24 30 m 1,0,-1
 24 50 l 1,1,-1
 25 50 l 1,2,-1
 26 50 l 1,3,-1
 26 30 l 1,4,-1
 26 10 l 1,5,-1
 25 10 l 1,6,-1
 24 10 l 1,7,-1
 24 30 l 1,0,-1
EndSplineSet
EndChar

StartChar: G
Encoding: 71 71 9
Width: 50
GlyphClass: 2
Flags: W
AnchorPoint: "Cursive-0" 35 48 exit 0
AnchorPoint: "Cursive-0" 15 28 entry 0
LayerCount: 2
Fore
SplineSet
15 39 m 1,0,-1
 15 49 l 1,1,-1
 25 50 l 1,2,-1
 36 50 l 1,3,-1
 36 49 l 1,4,-1
 36 48 l 1,5,-1
 26 48 l 1,6,-1
 17 48 l 1,7,-1
 17 38 l 1,8,-1
 17 29 l 1,9,-1
 16 29 l 1,10,-1
 14 29 l 1,11,-1
 15 39 l 1,0,-1
EndSplineSet
EndChar

StartChar: H
Encoding: 72 72 10
Width: 50
GlyphClass: 2
Flags: W
AnchorPoint: "Cursive-0" 44 28 exit 0
AnchorPoint: "Cursive-0" 4 49 entry 0
LayerCount: 2
Fore
SplineSet
34 38 m 1,0,-1
 24 48 l 1,1,-1
 14 48 l 1,2,-1
 4 48 l 1,3,-1
 4 49 l 1,4,-1
 4 50 l 1,5,-1
 15 50 l 1,6,-1
 25 50 l 1,7,-1
 35 40 l 1,8,-1
 46 29 l 1,9,-1
 45 29 l 1,10,-1
 44 28 l 1,11,-1
 34 38 l 1,0,-1
EndSplineSet
EndChar

StartChar: I
Encoding: 73 73 11
Width: 50
GlyphClass: 2
Flags: W
AnchorPoint: "Cursive-0" 45 29 exit 0
AnchorPoint: "Cursive-0" 5 49 entry 0
LayerCount: 2
Fore
SplineSet
15 39 m 1,0,-1
 5 49 l 1,1,-1
 6 49 l 1,2,-1
 6 50 l 1,3,-1
 16 40 l 1,4,-1
 26 31 l 1,5,-1
 35 31 l 1,6,-1
 45 31 l 1,7,-1
 45 30 l 1,8,-1
 45 29 l 1,9,-1
 35 29 l 1,10,-1
 25 29 l 1,11,-1
 15 39 l 1,0,-1
EndSplineSet
EndChar

StartChar: J
Encoding: 74 74 12
Width: 50
GlyphClass: 2
Flags: W
AnchorPoint: "Cursive-0" 35 49 exit 0
AnchorPoint: "Cursive-0" 14 49 entry 0
LayerCount: 2
Fore
SplineSet
15 30 m 1,0,-1
 14 30 l 1,1,-1
 14 40 l 1,2,-1
 14 50 l 1,3,-1
 15 50 l 1,4,-1
 16 50 l 1,5,-1
 16 41 l 1,6,-1
 16 31 l 1,7,-1
 25 41 l 1,8,-1
 35 50 l 1,9,-1
 35 49 l 1,10,-1
 36 49 l 1,11,-1
 26 39 l 1,12,-1
 17 29 l 1,13,-1
 16 29 l 1,14,-1
 15 29 l 1,15,-1
 15 30 l 1,0,-1
EndSplineSet
EndChar

StartChar: K
Encoding: 75 75 13
Width: 50
GlyphClass: 2
Flags: W
AnchorPoint: "Cursive-0" 34 31 exit 0
AnchorPoint: "Cursive-0" 15 31 entry 0
LayerCount: 2
Fore
SplineSet
14 31 m 1,0,-1
 14 32 l 1,1,-1
 23 41 l 1,2,-1
 33 50 l 1,3,-1
 34 50 l 1,4,-1
 35 50 l 1,5,-1
 35 40 l 1,6,-1
 35 31 l 1,7,-1
 34 31 l 1,8,-1
 33 31 l 1,9,-1
 33 39 l 1,10,-1
 33 47 l 1,11,-1
 24 39 l 1,12,-1
 15 30 l 1,13,-1
 14 30 l 1,14,-1
 14 31 l 1,0,-1
EndSplineSet
EndChar

StartChar: L
Encoding: 76 76 14
Width: 50
GlyphClass: 2
Flags: W
AnchorPoint: "Cursive-0" 34 49 exit 0
AnchorPoint: "Cursive-0" 34 9 entry 0
LayerCount: 2
Fore
SplineSet
24 19 m 1,0,-1
 14 28 l 1,1,-1
 14 29 l 1,2,-1
 14 30 l 1,3,-1
 24 40 l 1,4,-1
 34 50 l 1,5,-1
 35 49 l 1,6,-1
 35 48 l 1,7,-1
 26 39 l 1,8,-1
 16 29 l 1,9,-1
 26 20 l 1,10,-1
 36 10 l 1,11,-1
 35 9 l 1,12,-1
 34 9 l 1,13,-1
 24 19 l 1,0,-1
EndSplineSet
EndChar

StartChar: M
Encoding: 77 77 15
Width: 50
GlyphClass: 2
Flags: W
AnchorPoint: "Cursive-0" 14 8 exit 0
AnchorPoint: "Cursive-0" 15 49 entry 0
LayerCount: 2
Fore
SplineSet
15 9 m 1,0,-1
 15 10 l 1,1,-1
 24 20 l 1,2,-1
 34 29 l 1,3,-1
 24 39 l 1,4,-1
 14 49 l 1,5,-1
 15 49 l 1,6,-1
 16 50 l 1,7,-1
 26 40 l 1,8,-1
 36 30 l 1,9,-1
 35 29 l 1,10,-1
 35 28 l 1,11,-1
 26 18 l 1,12,-1
 16 9 l 1,13,-1
 15 9 l 1,0,-1
EndSplineSet
EndChar

StartChar: N
Encoding: 78 78 16
Width: 50
GlyphClass: 2
Flags: W
AnchorPoint: "Cursive-0" 44 49 exit 0
AnchorPoint: "Cursive-0" 4 30 entry 0
LayerCount: 2
Fore
SplineSet
4 30 m 1,0,-1
 4 31 l 1,1,-1
 15 31 l 1,2,-1
 25 31 l 1,3,-1
 34 41 l 1,4,-1
 44 50 l 1,5,-1
 45 49 l 1,6,-1
 46 49 l 1,7,-1
 36 39 l 1,8,-1
 26 29 l 1,9,-1
 15 29 l 1,10,-1
 4 29 l 1,11,-1
 4 30 l 1,0,-1
EndSplineSet
EndChar

StartChar: O
Encoding: 79 79 17
Width: 50
GlyphClass: 2
Flags: W
AnchorPoint: "Cursive-0" 35 9 exit 0
AnchorPoint: "Cursive-0" 14 50 entry 0
LayerCount: 2
Fore
SplineSet
24 19 m 1,0,-1
 14 30 l 1,1,-1
 14 40 l 1,2,-1
 14 50 l 1,3,-1
 15 50 l 1,4,-1
 16 50 l 1,5,-1
 16 40 l 1,6,-1
 16 31 l 1,7,-1
 26 20 l 1,8,-1
 36 10 l 1,9,-1
 35 10 l 1,10,-1
 34 9 l 1,11,-1
 24 19 l 1,0,-1
EndSplineSet
EndChar

StartChar: P
Encoding: 80 80 18
Width: 50
GlyphClass: 2
Flags: W
AnchorPoint: "Cursive-0" 34 28 exit 0
AnchorPoint: "Cursive-0" 14 48 entry 0
LayerCount: 2
Fore
SplineSet
33 38 m 1,0,-1
 33 48 l 1,1,-1
 24 48 l 1,2,-1
 14 48 l 1,3,-1
 14 49 l 1,4,-1
 14 50 l 1,5,-1
 25 50 l 1,6,-1
 35 49 l 1,7,-1
 35 39 l 1,8,-1
 36 29 l 1,9,-1
 34 29 l 1,10,-1
 33 29 l 1,11,-1
 33 38 l 1,0,-1
EndSplineSet
EndChar

StartChar: Q
Encoding: 81 81 19
Width: 50
GlyphClass: 2
Flags: W
AnchorPoint: "Cursive-0" 34 29 exit 0
AnchorPoint: "Cursive-0" 34 49 entry 0
LayerCount: 2
Fore
SplineSet
14 30 m 1,0,-1
 24 40 l 1,1,-1
 34 50 l 1,2,-1
 35 49 l 1,3,-1
 36 49 l 1,4,-1
 27 40 l 1,5,-1
 18 31 l 1,6,-1
 26 31 l 1,7,-1
 34 31 l 1,8,-1
 34 30 l 1,9,-1
 34 29 l 1,10,-1
 24 29 l 1,11,-1
 14 29 l 1,12,-1
 14 30 l 1,0,-1
EndSplineSet
EndChar

StartChar: R
Encoding: 82 82 20
Width: 50
GlyphClass: 2
Flags: W
AnchorPoint: "Cursive-0" 34 9 exit 0
AnchorPoint: "Cursive-0" 15 49 entry 0
LayerCount: 2
Fore
SplineSet
34 19 m 1,0,-1
 34 29 l 1,1,-1
 24 39 l 1,2,-1
 14 49 l 1,3,-1
 15 49 l 1,4,-1
 16 50 l 1,5,-1
 26 40 l 1,6,-1
 36 30 l 1,7,-1
 36 20 l 1,8,-1
 36 10 l 1,9,-1
 35 10 l 1,10,-1
 34 10 l 1,11,-1
 34 19 l 1,0,-1
EndSplineSet
EndChar

StartChar: S
Encoding: 83 83 21
Width: 50
GlyphClass: 2
Flags: W
AnchorPoint: "Cursive-0" 34 50 exit 0
AnchorPoint: "Cursive-0" 14 9 entry 0
LayerCount: 2
Fore
SplineSet
14 10 m 1,0,-1
 14 11 l 1,1,-1
 24 20 l 1,2,-1
 33 29 l 1,3,-1
 33 40 l 1,4,-1
 33 50 l 1,5,-1
 34 50 l 1,6,-1
 36 50 l 1,7,-1
 35 39 l 1,8,-1
 35 28 l 1,9,-1
 26 19 l 1,10,-1
 16 9 l 1,11,-1
 15 9 l 1,12,-1
 14 9 l 1,13,-1
 14 10 l 1,0,-1
EndSplineSet
EndChar

StartChar: T
Encoding: 84 84 22
Width: 50
GlyphClass: 2
Flags: W
AnchorPoint: "Cursive-0" 44 9 exit 0
AnchorPoint: "Cursive-0" 4 49 entry 0
LayerCount: 2
Fore
SplineSet
24 29 m 1,0,-1
 4 49 l 1,1,-1
 5 49 l 1,2,-1
 6 50 l 1,3,-1
 26 30 l 1,4,-1
 46 10 l 1,5,-1
 45 9 l 1,6,-1
 44 9 l 1,7,-1
 24 29 l 1,0,-1
EndSplineSet
EndChar

StartChar: U
Encoding: 85 85 23
Width: 50
GlyphClass: 2
Flags: W
AnchorPoint: "Cursive-0" 44 29 exit 0
AnchorPoint: "Cursive-0" 4 29 entry 0
LayerCount: 2
Fore
SplineSet
4 30 m 1,0,-1
 4 31 l 1,1,-1
 14 40 l 1,2,-1
 24 50 l 1,3,-1
 25 50 l 1,4,-1
 26 50 l 1,5,-1
 36 40 l 1,6,-1
 46 30 l 1,7,-1
 45 30 l 1,8,-1
 44 29 l 1,9,-1
 34 38 l 1,10,-1
 25 48 l 1,11,-1
 15 39 l 1,12,-1
 6 29 l 1,13,-1
 5 29 l 1,14,-1
 4 29 l 1,15,-1
 4 30 l 1,0,-1
EndSplineSet
EndChar

StartChar: V
Encoding: 86 86 24
Width: 50
GlyphClass: 2
Flags: W
AnchorPoint: "Cursive-0" 15 50 exit 0
AnchorPoint: "Cursive-0" 14 31 entry 0
LayerCount: 2
Fore
SplineSet
15 31 m 1,0,-1
 15 32 l 1,1,-1
 23 32 l 1,2,-1
 32 32 l 1,3,-1
 23 41 l 1,4,-1
 14 50 l 1,5,-1
 16 50 l 1,6,-1
 17 50 l 1,7,-1
 26 41 l 1,8,-1
 36 31 l 1,9,-1
 35 31 l 1,10,-1
 34 30 l 1,11,-1
 25 30 l 1,12,-1
 15 30 l 1,13,-1
 15 31 l 1,0,-1
EndSplineSet
EndChar

StartChar: W
Encoding: 87 87 25
Width: 50
GlyphClass: 2
Flags: W
AnchorPoint: "Cursive-0" 44 49 exit 0
AnchorPoint: "Cursive-0" 5 49 entry 0
LayerCount: 2
Fore
SplineSet
5 49 m 1,0,-1
 5 50 l 1,1,-1
 25 50 l 1,2,-1
 45 50 l 1,3,-1
 45 49 l 1,4,-1
 45 48 l 1,5,-1
 25 48 l 1,6,-1
 5 48 l 1,7,-1
 5 49 l 1,0,-1
EndSplineSet
EndChar

StartChar: X
Encoding: 88 88 26
Width: 50
GlyphClass: 2
Flags: W
AnchorPoint: "Cursive-0" 34 28 exit 0
AnchorPoint: "Cursive-0" 34 49 entry 0
LayerCount: 2
Fore
SplineSet
24 38 m 1,0,-1
 14 48 l 1,1,-1
 14 49 l 1,2,-1
 14 50 l 1,3,-1
 24 50 l 1,4,-1
 34 50 l 1,5,-1
 34 49 l 1,6,-1
 34 48 l 1,7,-1
 26 48 l 1,8,-1
 17 48 l 1,9,-1
 26 39 l 1,10,-1
 36 29 l 1,11,-1
 35 29 l 1,12,-1
 34 28 l 1,13,-1
 24 38 l 1,0,-1
EndSplineSet
EndChar

StartChar: Y
Encoding: 89 89 27
Width: 50
GlyphClass: 2
Flags: W
AnchorPoint: "Cursive-0" 34 50 exit 0
AnchorPoint: "Cursive-0" 15 30 entry 0
LayerCount: 2
Fore
SplineSet
14 30 m 1,0,-1
 14 31 l 1,1,-1
 24 31 l 1,2,-1
 33 31 l 1,3,-1
 33 40 l 1,4,-1
 33 50 l 1,5,-1
 34 50 l 1,6,-1
 36 50 l 1,7,-1
 35 40 l 1,8,-1
 35 30 l 1,9,-1
 25 29 l 1,10,-1
 14 29 l 1,11,-1
 14 30 l 1,0,-1
EndSplineSet
EndChar

StartChar: Z
Encoding: 90 90 28
Width: 50
GlyphClass: 2
Flags: W
AnchorPoint: "Cursive-0" 34 49 exit 0
AnchorPoint: "Cursive-0" 15 49 entry 0
LayerCount: 2
Fore
SplineSet
24 39 m 1,0,-1
 14 49 l 1,1,-1
 15 49 l 1,2,-1
 16 50 l 1,3,-1
 25 41 l 1,4,-1
 34 32 l 1,5,-1
 34 41 l 1,6,-1
 34 50 l 1,7,-1
 35 50 l 1,8,-1
 36 50 l 1,9,-1
 36 40 l 1,10,-1
 36 30 l 1,11,-1
 35 29 l 1,12,-1
 34 29 l 1,13,-1
 24 39 l 1,0,-1
EndSplineSet
EndChar

StartChar: W_H.liga
Encoding: 65539 -1 29
Width: 50
GlyphClass: 3
Flags: W
AnchorPoint: "Cursive-0" 21 29 exit 0
AnchorPoint: "Cursive-0" 1 30 entry 0
LayerCount: 2
Fore
SplineSet
11 38 m 1,0,-1
 2 47 l 1,1,-1
 2 39 l 1,2,-1
 2 30 l 1,3,-1
 1 30 l 1,4,-1
 0 30 l 1,5,-1
 0 40 l 1,6,-1
 0 50 l 1,7,-1
 1 50 l 1,8,-1
 3 50 l 1,9,-1
 12 40 l 1,10,-1
 22 30 l 1,11,-1
 21 30 l 1,12,-1
 20 29 l 1,13,-1
 11 38 l 1,0,-1
EndSplineSet
Ligature2: "'liga' Standard Ligatures in Latin lookup 0 subtable" W H
EndChar

StartChar: C_H.liga
Encoding: 65540 -1 30
Width: 50
GlyphClass: 3
Flags: W
AnchorPoint: "Cursive-0" 0 49 exit 0
AnchorPoint: "Cursive-0" 1 29 entry 0
LayerCount: 2
Fore
SplineSet
0 29 m 1,0,-1
 9 39 l 1,1,-1
 18 48 l 1,2,-1
 9 48 l 1,3,-1
 0 48 l 1,4,-1
 0 49 l 1,5,-1
 0 50 l 1,6,-1
 10 50 l 1,7,-1
 20 50 l 1,8,-1
 20 49 l 1,9,-1
 21 47 l 1,10,-1
 11 38 l 1,11,-1
 1 28 l 1,12,-1
 0 28 l 1,13,-1
 0 29 l 1,0,-1
EndSplineSet
Ligature2: "'liga' Standard Ligatures in Latin lookup 0 subtable" C H
EndChar
